<svg width="32" height="32" viewBox="0 0 32 32" fill="none" xmlns="http://www.w3.org/2000/svg">
<path fill-rule="evenodd" clip-rule="evenodd" d="M16 32C24.8366 32 32 24.8366 32 16C32 7.16345 24.8366 0 16 0C7.16344 0 0 7.16345 0 16C0 24.8366 7.16344 32 16 32ZM24.564 10.1084C24.7856 10.6781 24.9402 11.3356 24.9824 12.2921C25.0246 13.252 25.0281 13.5579 25.0281 16.0018C25.0281 18.4456 25.0175 18.7515 24.9754 19.7115C24.9332 20.6679 24.7784 21.322 24.557 21.8952C24.0893 23.1047 23.1329 24.0611 21.9232 24.5288C21.3536 24.7504 20.6961 24.905 19.7397 24.9472C18.7797 24.9895 18.4738 24.9999 16.0299 24.9999C13.5861 24.9999 13.2801 24.9895 12.3202 24.9472C11.3637 24.905 10.7097 24.7504 10.1366 24.5288C9.53877 24.3038 8.99374 23.9486 8.54364 23.4915C8.08652 23.0414 7.73145 22.4999 7.50288 21.8952C7.28133 21.3254 7.12654 20.6679 7.08437 19.7115C7.04219 18.7515 7.03162 18.4456 7.03162 16.0018C7.03162 13.5579 7.04219 13.252 7.08794 12.2885C7.13011 11.3321 7.28477 10.6781 7.50632 10.1049C7.73145 9.50717 8.08652 8.96213 8.54364 8.51202C8.99374 8.05133 9.5352 7.69968 10.1401 7.47113C10.7097 7.24973 11.3673 7.09491 12.3237 7.05273C13.2836 7.01059 13.5895 7 16.0334 7C18.4772 7 18.7831 7.01059 19.7467 7.0563C20.7031 7.09848 21.3572 7.25314 21.9302 7.4747C22.528 7.69968 23.073 8.0549 23.5231 8.51202C23.9838 8.96213 24.3354 9.5036 24.564 10.1084ZM23.052 21.3114C23.1751 20.9949 23.3227 20.5202 23.3615 19.6411C23.4036 18.6917 23.4142 18.4104 23.4142 16.0088C23.4142 13.6071 23.4036 13.3224 23.3615 12.373C23.3227 11.4973 23.1751 11.0192 23.052 10.7027C22.9078 10.3123 22.6792 9.96069 22.3803 9.66882C22.092 9.36993 21.7368 9.14139 21.3466 8.99728C21.0301 8.87424 20.5554 8.72656 19.6763 8.68784C18.7304 8.64566 18.4456 8.63507 16.0404 8.63507C13.6389 8.63507 13.354 8.64566 12.4046 8.68784C11.5291 8.72656 11.0508 8.87424 10.7343 8.99728C10.344 9.14139 9.99232 9.36993 9.70058 9.66882C9.39813 9.95728 9.16957 10.3123 9.02534 10.7027C8.90227 11.0192 8.75461 11.4939 8.71602 12.373C8.67371 13.3188 8.66327 13.6071 8.66327 16.0088C8.66327 18.4104 8.67371 18.6953 8.71602 19.6447C8.75461 20.5202 8.90227 20.9985 9.02534 21.315C9.16957 21.7052 9.39813 22.0568 9.69701 22.3487C9.98532 22.6476 10.3405 22.8761 10.7308 23.0204C11.0472 23.1434 11.5219 23.2911 12.401 23.3297C13.347 23.372 13.6353 23.3824 16.0369 23.3824C18.4386 23.3824 18.7234 23.372 19.6728 23.3297C20.5484 23.2911 21.0265 23.1434 21.343 23.0204C22.1272 22.7179 22.7495 22.0956 23.052 21.3114ZM16.0334 11.3778C13.4806 11.3778 11.4094 13.4489 11.4094 16.0018C11.4094 18.5546 13.4806 20.6257 16.0334 20.6257C18.5863 20.6257 20.6573 18.5546 20.6573 16.0018C20.6573 13.4489 18.5863 11.3778 16.0334 11.3778ZM16.0334 19.0012C14.3773 19.0012 13.0339 17.658 13.0339 16.0018C13.0339 14.3455 14.3773 13.0023 16.0334 13.0023C17.6896 13.0023 19.0328 14.3455 19.0328 16.0018C19.0328 17.658 17.6896 19.0012 16.0334 19.0012ZM20.8401 12.2745C21.4364 12.2745 21.9198 11.7911 21.9198 11.195C21.9198 10.5987 21.4364 10.1155 20.8401 10.1155C20.244 10.1155 19.7607 10.5987 19.7607 11.195C19.7607 11.7911 20.244 12.2745 20.8401 12.2745Z" fill="white"/>
</svg>
